<svg t="1622515105139" class="icon" viewBox="0 0 1024 1024" version="1.1" xmlns="http://www.w3.org/2000/svg" p-id="8300"
  width="16" height="16">
  <path
    d="M348.312 667.028c18.082 18.081 46.632 18.081 63.762 0L909.8 169.303c18.082-18.082 18.082-46.632 0-64.714s-46.632-18.082-63.762 0L348.312 602.314c-18.082 18.082-18.082 46.632 0 64.714z"
    p-id="8301" fill="#707070"></path>
  <path
    d="M899.33 443.384c-24.743 0-45.68 19.986-45.68 45.68v364.491h-683.3v-683.3h364.49c24.744 0 44.729-19.986 45.68-45.681 0-24.744-19.985-45.68-44.728-45.68H124.669c-24.743 0-45.68 19.985-45.68 45.68v774.662c0 12.371 4.758 23.792 13.323 32.357 8.565 8.565 19.985 13.323 32.357 13.323h774.662c12.372 0 23.792-4.758 32.357-13.323 8.565-8.565 13.323-19.986 13.323-32.357V489.065c0-25.695-20.937-45.68-45.68-45.68z"
    p-id="8302" fill="#707070"></path>
</svg>
