<svg class="icon" viewBox="0 0 1024 1024" version="1.1" xmlns="http://www.w3.org/2000/svg" width="16" height="16">
  <path
    d="M903.808 239.04l-818.304 0 0 545.92 852.992 0 0-545.92-34.688 0zM869.664 273.152l-329.536 329.536c-15.04 15.04-41.248 15.04-56.288 0l-329.6-329.536 715.392 0zM119.616 286.752l221.536 221.504-221.536 221.536 0-443.072zM146.848 750.848l218.464-218.432 94.432 94.4c13.952 13.952 32.512 21.664 52.256 21.664s38.304-7.712 52.256-21.664l94.432-94.432 218.432 218.432-730.304 0zM904.384 729.824l-221.536-221.568 221.536-221.568 0 443.136z">
  </path>
</svg>
