<svg t="1622448624720" class="icon" viewBox="0 0 1024 1024" version="1.1" xmlns="http://www.w3.org/2000/svg" p-id="3852"
  width="16" height="16">
  <path
    d="M438.857143 548.571429a36.571429 36.571429 0 0 1 36.571428 36.571428v256a36.571429 36.571429 0 0 1-36.571428 36.571429H182.857143a36.571429 36.571429 0 0 1-36.571429-36.571429v-256a36.571429 36.571429 0 0 1 36.571429-36.571428h256z m402.285714 0a36.571429 36.571429 0 0 1 36.571429 36.571428v256a36.571429 36.571429 0 0 1-36.571429 36.571429h-256a36.571429 36.571429 0 0 1-36.571428-36.571429v-256a36.571429 36.571429 0 0 1 36.571428-36.571428h256z m-438.857143 73.142857H219.428571v182.857143h182.857143v-182.857143z m402.285715 0h-182.857143v182.857143h182.857143v-182.857143zM438.857143 146.285714a36.571429 36.571429 0 0 1 36.571428 36.571429v256a36.571429 36.571429 0 0 1-36.571428 36.571428H182.857143a36.571429 36.571429 0 0 1-36.571429-36.571428V182.857143a36.571429 36.571429 0 0 1 36.571429-36.571429h256z m402.285714 0a36.571429 36.571429 0 0 1 36.571429 36.571429v256a36.571429 36.571429 0 0 1-36.571429 36.571428h-256a36.571429 36.571429 0 0 1-36.571428-36.571428V182.857143a36.571429 36.571429 0 0 1 36.571428-36.571429h256zM402.285714 219.428571H219.428571v182.857143h182.857143V219.428571z m402.285715 0h-182.857143v182.857143h182.857143V219.428571z"
    p-id="3853"></path>
</svg>
