<svg t="1622515034395" class="icon" viewBox="0 0 1025 1024" version="1.1" xmlns="http://www.w3.org/2000/svg" p-id="7443"
  width="16" height="16">
  <path
    d="M510.08 722.112c-118.144 0-214.208-94.272-214.208-210.112 0-115.84 96-210.176 214.08-210.176 118.016 0 214.08 94.272 214.08 210.176 0 115.904-96 210.176-214.08 210.176z m0-351.744c-80.32 0-145.6 63.488-145.6 141.568 0 78.08 65.28 141.632 145.536 141.632s145.472-63.552 145.472-141.632c0-78.08-65.28-141.568-145.472-141.568z m11.648 525.568a358.4 358.4 0 0 1-9.216-0.128C218.24 895.488 13.952 544 5.44 528.96a34.304 34.304 0 0 1 0-34.048c8.576-14.976 212.992-366.848 507.52-366.848 294.592 0 499.008 351.872 507.52 366.848a34.21 34.21 0 0 1 0.448 33.28c-8.064 14.976-200.768 367.744-499.2 367.744zM75.52 512c43.328 67.84 216.64 315.328 437.504 315.328h0.896l7.872 0.128c223.872 0 388.48-247.552 429.12-314.88-42.816-67.136-216.448-315.904-437.888-315.904-221.312 0-394.24 247.424-437.504 315.328z"
    p-id="7444" fill="#707070"></path>
</svg>
