<svg t="1622446865936" class="icon" viewBox="0 0 1024 1024" version="1.1" xmlns="http://www.w3.org/2000/svg" p-id="3008"
  width="16" height="16">
  <path
    d="M512 149.333333a362.112 362.112 0 0 1 288.768 143.232l75.349333-75.818666a11.946667 11.946667 0 0 1 16.256-0.426667 10.666667 10.666667 0 0 1 3.626667 7.936v234.154667c0 6.058667-5.12 10.922667-11.52 10.922666h-232.96a11.221333 11.221333 0 0 1-11.52-10.922666c0-2.773333 1.109333-5.418667 3.114667-7.466667l100.096-100.565333A282.069333 282.069333 0 1 0 790.869333 554.666667h81.322667A362.709333 362.709333 0 0 1 149.333333 512 362.666667 362.666667 0 0 1 512 149.333333z"
    fill="#7C85A2" p-id="3009"></path>
</svg>
