<svg class="icon" viewBox="0 0 1024 1024" version="1.1" xmlns="http://www.w3.org/2000/svg" width="16" height="16">
  <path
    d="M221.184 271.872c0 21.504 17.408 38.912 38.912 38.912 21.504 0 38.912-17.408 38.912-38.912 0-21.504-17.408-38.912-38.912-38.912-21.504-0.512-38.912 17.408-38.912 38.912zM458.752 271.872c0 21.504 17.408 38.912 38.912 38.912 21.504 0 38.912-17.408 38.912-38.912 0-21.504-17.408-38.912-38.912-38.912-21.504-0.512-38.912 16.896-38.912 38.912z"
    fill="#ffffff" p-id="3021"></path>
  <path
    d="M757.76 388.096l-2.56-25.088C738.304 199.68 572.928 72.192 378.88 72.192 171.008 72.192 1.536 215.04 1.536 390.144c0 91.136 45.568 176.64 125.44 237.056 5.632 4.096 7.68 11.776 5.632 18.432L97.792 747.52c-4.608 12.8 8.704 24.576 21.504 18.944l142.848-69.632c3.584-1.536 7.168-2.048 11.264-1.024 34.816 8.704 70.656 12.8 107.008 12.8h13.312l25.088-0.512c9.728 0 17.408-8.704 15.872-18.944l-3.072-24.576c-1.024-8.192-1.536-16.384-1.536-24.576 0-61.952 28.672-120.32 81.408-164.352 53.248-44.544 124.416-69.632 199.68-69.632l31.232 0.512c8.704 0 16.384-8.704 15.36-18.432z m-47.616-12.8c-82.944 0-160.768 27.136-219.648 76.8-59.392 50.176-92.16 116.736-92.16 187.904 0 9.216 0.512 18.944 2.048 28.672l1.024 9.216h-9.216c-41.472 1.024-83.456-3.584-122.88-14.336-3.584-1.024-7.168-0.512-10.752 1.024l-119.808 58.368 30.72-89.088c2.048-6.656 0-13.824-6.144-17.92-83.456-55.296-131.072-137.216-131.072-225.28 0-158.72 155.648-287.232 346.624-287.232 178.688 0 330.24 115.712 345.6 263.168l1.024 9.216-15.36-0.512z"
    fill="#ffffff" p-id="3022"></path>
  <path
    d="M921.6 847.872c-2.048-6.144-0.512-12.8 4.608-16.896 61.44-49.664 96.256-118.272 96.256-191.488 0-145.92-139.776-264.704-312.32-264.704s-312.32 118.784-312.32 264.704 139.776 264.704 312.32 264.704c31.232 0 62.464-4.096 92.16-11.776 3.584-1.024 7.168-0.512 10.752 1.024l116.224 56.32c12.288 6.144 25.6-5.632 20.992-18.944l-28.672-82.944z m-105.472 13.312c-3.584-1.536-7.168-2.048-11.264-1.024-30.208 9.216-62.464 13.312-94.72 13.312-155.136 0-281.6-104.96-281.6-233.984s126.464-233.984 281.6-233.984 281.6 104.96 281.6 233.984c0 69.12-36.864 134.656-100.864 179.2-5.632 4.096-8.192 11.264-5.632 17.408l24.064 69.632-93.184-44.544z"
    fill="#ffffff" p-id="3023"></path>
  <path
    d="M615.424 517.632c-14.848 0-27.136 12.288-27.136 27.136s12.288 27.136 27.136 27.136 27.136-12.288 27.136-27.136-12.288-27.136-27.136-27.136z m189.952 0c-14.848 0-27.136 12.288-27.136 27.136s12.288 27.136 27.136 27.136 27.136-12.288 27.136-27.136-12.288-27.136-27.136-27.136z"
    fill="#ffffff" p-id="3024"></path>
</svg>
